<svg xmlns="http://www.w3.org/2000/svg" width="586.821" height="800.315" viewBox="0 0 155.263 211.75" xmlns:v="https://vecta.io/nano"><defs><clipPath id="A"><path d="M61.122 26.366h17.68v114.174h-17.68zm52.453 56.87a43.942 43.942 0 0 0-87.884 0 43.942 43.942 0 0 0 87.884 0z" fill="red" fill-opacity="1" fill-rule="nonzero" stroke-width=".312"/></clipPath><clipPath id="B"><path d="M10.19 26.518h52.212v114.021H10.19zm103.385 56.717a43.942 43.942 0 0 0-87.884 0 43.942 43.942 0 0 0 87.884 0z" fill="red" fill-opacity="1" fill-rule="nonzero" stroke-width=".312"/></clipPath></defs><g transform="translate(-15.19 -31.366)"><g fill="#156082" transform="matrix(2.032658 0 0 2.032658 -15.685728 -32.38988)"><path clip-path="url(#B)" d="M15.19 31.518h42.212v104.021H15.19z"/><path clip-path="url(#A)" d="M66.122 31.366h7.68v104.174h-7.68z"/></g><path d="M118.719 64.44h15.611v144.255h-15.611z" fill="#156082"/><path d="M82.594 116.651V101.04h87.859v15.611z" fill="#156082"/></g></svg>